<svg version="1.1" id="Layer_1" xmlns="http://www.w3.org/2000/svg" xmlns:xlink="http://www.w3.org/1999/xlink" x="0px" y="0px"
	 width="100%" viewBox="0 0 309 384" enable-background="new 0 0 309 384" xml:space="preserve">
<path fill="#FFFFFE" opacity="1.000000" stroke="none" 
	d="
M161.000000,385.000000 
	C107.333344,385.000000 54.166687,385.000000 1.000021,385.000000 
	C1.000014,257.000031 1.000014,129.000061 1.000007,1.000073 
	C103.999947,1.000049 206.999893,1.000049 309.999878,1.000024 
	C309.999939,128.999924 309.999939,256.999847 309.999969,384.999878 
	C260.500000,385.000000 211.000000,385.000000 161.000000,385.000000 
M82.550354,94.400894 
	C91.372231,96.647705 100.086945,99.541855 109.035538,101.023193 
	C139.068069,105.994690 169.249649,105.899048 199.304810,101.385826 
	C209.037613,99.924309 218.476593,96.506241 228.823547,94.073708 
	C234.678375,90.790901 241.039581,88.149094 246.241409,84.039688 
	C251.153946,80.158791 251.008575,73.331772 246.221161,69.095963 
	C242.077438,65.429688 237.160416,62.297001 232.080566,60.089943 
	C213.223358,51.897026 193.004547,49.513775 172.798462,48.423100 
	C144.687180,46.905724 116.653603,48.192886 89.329277,56.039406 
	C80.379135,58.609550 71.495102,61.530487 64.607460,68.257217 
	C60.111454,72.648186 59.229717,77.754700 62.529800,82.114029 
	C67.387009,88.530296 73.936073,92.537827 82.550354,94.400894 
M153.633209,350.947174 
	C154.091843,350.908051 154.550461,350.868958 155.936996,350.958405 
	C164.246628,350.641022 172.569473,350.521545 180.863342,349.967987 
	C203.031464,348.488464 224.717041,344.536743 245.335541,335.987427 
	C255.353333,331.833618 265.073456,327.025604 271.645477,316.750427 
	C272.428558,314.247314 273.881744,311.747009 273.892181,309.240692 
	C274.011475,280.505524 273.911377,251.769424 273.997864,222.099716 
	C273.997864,176.372391 273.997864,130.645081 273.997864,85.692238 
	C269.835663,89.905510 266.105835,94.648376 261.461731,98.193634 
	C249.437103,107.373131 235.071671,111.366058 220.671768,114.848648 
	C198.440338,120.225288 175.755585,121.829674 152.032623,121.926941 
	C124.811279,121.519241 97.894783,118.834763 72.012276,109.844582 
	C57.866867,104.931221 44.092476,99.108688 36.000427,83.622047 
	C36.000427,94.087669 35.990005,103.346764 36.002266,112.605827 
	C36.051025,149.430664 36.106861,186.255508 36.020245,223.988754 
	C36.014549,250.959366 36.194199,277.932098 35.887402,304.899292 
	C35.798241,312.736603 38.352283,318.985443 44.210358,323.706085 
	C48.573318,327.221924 53.265190,330.583130 58.306660,332.961700 
	C88.270485,347.098419 120.326744,350.553497 153.633209,350.947174 
z"/>
<path fill="#9FA1A3" opacity="1.000000" stroke="none" 
	d="
M152.948883,122.055237 
	C175.755585,121.829674 198.440338,120.225288 220.671768,114.848648 
	C235.071671,111.366058 249.437103,107.373131 261.461731,98.193634 
	C266.105835,94.648376 269.835663,89.905510 273.997864,85.692238 
	C273.997864,130.645081 273.997864,176.372391 273.582153,222.560699 
	C272.081085,223.986969 270.995697,224.952286 269.646912,226.061935 
	C268.595032,226.814499 267.806610,227.422714 266.662415,228.053741 
	C263.513702,230.029648 260.720734,231.982742 257.568054,233.949829 
	C256.490051,234.010971 255.771744,234.058121 254.692413,234.073914 
	C252.889877,234.711136 251.448364,235.379730 249.639740,236.043243 
	C248.540207,236.080887 247.807785,236.123581 246.643127,236.116730 
	C239.789307,236.081848 233.367691,236.096542 226.556946,236.085358 
	C225.128311,236.024887 224.088821,235.990265 222.989822,235.637817 
	C222.264709,234.924362 221.599091,234.528732 220.550049,234.103714 
	C219.142532,234.021072 218.118439,233.967819 217.025894,233.601166 
	C216.288208,232.891281 215.618973,232.494827 214.640564,231.926849 
	C209.207474,227.512436 204.083542,223.269531 198.933472,218.704605 
	C198.278076,217.915161 197.648849,217.447754 197.009796,216.990173 
	C197.000000,217.000000 197.019547,216.978714 196.968567,216.639709 
	C194.312500,213.933411 193.494492,215.564346 192.895508,218.307999 
	C191.824066,219.720642 190.906570,220.854965 189.646057,222.023041 
	C187.517654,224.022324 185.732269,225.987885 183.716705,227.973251 
	C183.486526,227.993057 183.028259,228.052170 182.706329,228.069443 
	C181.894638,228.699036 181.404846,229.311356 180.575714,229.950699 
	C179.163513,230.662521 178.090668,231.347336 176.638565,232.057404 
	C173.481750,233.365631 170.704178,234.648575 167.539398,235.947632 
	C166.120071,236.013275 165.087982,236.062820 163.640808,236.072525 
	C159.839020,236.720703 156.452332,237.408707 152.988892,238.010178 
	C152.912140,237.923660 152.760406,237.749069 152.835037,237.301788 
	C152.922745,198.588089 152.935806,160.321671 152.948883,122.055237 
z"/>
<path fill="#3E3E3F" opacity="1.000000" stroke="none" 
	d="
M152.490753,121.991089 
	C152.935806,160.321671 152.922745,198.588089 152.451874,237.287903 
	C143.818939,237.042694 135.697586,235.655426 128.933395,230.837708 
	C122.670174,226.376831 117.047325,221.016846 110.887321,215.838303 
	C110.598236,216.185150 109.771912,217.153717 108.970032,218.142120 
	C97.371658,232.438538 82.691795,239.405426 64.069130,237.134918 
	C53.063080,235.793030 44.118263,230.435165 36.160076,223.080338 
	C36.106861,186.255508 36.051025,149.430664 36.002266,112.605827 
	C35.990005,103.346764 36.000427,94.087669 36.000427,83.622047 
	C44.092476,99.108688 57.866867,104.931221 72.012276,109.844582 
	C97.894783,118.834763 124.811279,121.519241 152.490753,121.991089 
z"/>
<path fill="#5AB4D9" opacity="1.000000" stroke="none" 
	d="
M164.055878,236.112350 
	C165.087982,236.062820 166.120071,236.013275 167.935181,235.971939 
	C171.484726,234.664139 174.251266,233.348129 177.017807,232.032135 
	C178.090668,231.347336 179.163513,230.662521 180.904266,229.942139 
	C182.057541,229.288422 182.542908,228.670303 183.028259,228.052185 
	C183.028259,228.052170 183.486526,227.993057 184.067261,227.960312 
	C186.428345,225.948135 188.208710,223.968704 189.989075,221.989288 
	C190.906570,220.854965 191.824066,219.720642 193.236542,218.268097 
	C194.827530,217.626160 195.923538,217.302444 197.019547,216.978729 
	C197.019547,216.978714 197.000000,217.000000 197.038681,217.311722 
	C197.704788,218.091171 198.332199,218.558899 198.959610,219.026642 
	C204.083542,223.269531 209.207474,227.512436 214.701553,232.241730 
	C215.745926,233.123611 216.420135,233.519089 217.094345,233.914581 
	C218.118439,233.967819 219.142532,234.021072 220.614609,234.411514 
	C221.724838,235.151016 222.387070,235.553329 223.049316,235.955658 
	C224.088821,235.990265 225.128311,236.024887 226.647736,236.444687 
	C232.560181,240.120743 243.141449,239.768753 247.075363,236.166290 
	C247.807785,236.123581 248.540207,236.080887 249.849594,236.281769 
	C251.968857,235.718658 253.511154,234.911957 255.053452,234.105255 
	C255.771744,234.058121 256.490051,234.010971 257.935974,233.941803 
	C261.448456,231.956833 264.233307,229.993881 267.018158,228.030930 
	C267.806610,227.422714 268.595032,226.814499 270.071747,226.103027 
	C271.502075,227.715332 272.936890,229.452957 272.883087,231.143188 
	C271.969391,259.833191 275.227203,288.614655 271.061981,317.230591 
	C265.073456,327.025604 255.353333,331.833618 245.335541,335.987427 
	C224.717041,344.536743 203.031464,348.488464 180.863342,349.967987 
	C172.569473,350.521545 164.246628,350.641022 155.469971,350.438293 
	C155.001358,326.611298 154.999771,303.304413 154.998962,279.529175 
	C154.999771,265.837738 154.999771,252.614670 154.999771,240.669189 
	C158.812683,238.750610 161.434280,237.431488 164.055878,236.112350 
z"/>
<path fill="#3A98C5" opacity="1.000000" stroke="none" 
	d="
M36.090160,223.534546 
	C44.118263,230.435165 53.063080,235.793030 64.069130,237.134918 
	C82.691795,239.405426 97.371658,232.438538 108.970032,218.142120 
	C109.771912,217.153717 110.598236,216.185150 110.887321,215.838303 
	C117.047325,221.016846 122.670174,226.376831 128.933395,230.837708 
	C135.697586,235.655426 143.818939,237.042694 152.377258,237.735168 
	C152.760406,237.749069 152.912140,237.923660 152.955750,238.467209 
	C153.016144,252.013336 153.032913,265.015930 153.032806,278.485718 
	C152.993515,302.915192 152.971115,326.877411 152.948715,350.839661 
	C120.326744,350.553497 88.270485,347.098419 58.306660,332.961700 
	C53.265190,330.583130 48.573318,327.221924 44.210358,323.706085 
	C38.352283,318.985443 35.798241,312.736603 35.887402,304.899292 
	C36.194199,277.932098 36.014549,250.959366 36.090160,223.534546 
z"/>
<path fill="#B8D435" opacity="1.000000" stroke="none" 
	d="
M81.936119,94.000229 
	C73.936073,92.537827 67.387009,88.530296 62.529800,82.114029 
	C59.229717,77.754700 60.111454,72.648186 64.607460,68.257217 
	C71.495102,61.530487 80.379135,58.609550 89.329277,56.039406 
	C116.653603,48.192886 144.687180,46.905724 172.798462,48.423100 
	C193.004547,49.513775 213.223358,51.897026 232.080566,60.089943 
	C237.160416,62.297001 242.077438,65.429688 246.221161,69.095963 
	C251.008575,73.331772 251.153946,80.158791 246.241409,84.039688 
	C241.039581,88.149094 234.678375,90.790901 228.193665,93.758514 
	C209.071213,86.374710 189.646805,84.049644 170.122513,83.148331 
	C150.715790,82.252441 131.202774,82.384949 112.028709,86.092201 
	C101.868019,88.056747 91.958839,91.322105 81.936119,94.000229 
z"/>
<path fill="#81BA06" opacity="1.000000" stroke="none" 
	d="
M82.243240,94.200562 
	C91.958839,91.322105 101.868019,88.056747 112.028709,86.092201 
	C131.202774,82.384949 150.715790,82.252441 170.122513,83.148331 
	C189.646805,84.049644 209.071213,86.374710 227.806870,93.713234 
	C218.476593,96.506241 209.037613,99.924309 199.304810,101.385826 
	C169.249649,105.899048 139.068069,105.994690 109.035538,101.023193 
	C100.086945,99.541855 91.372231,96.647705 82.243240,94.200562 
z"/>
<path fill="#6AB0D0" opacity="1.000000" stroke="none" 
	d="
M153.290955,350.893433 
	C152.971115,326.877411 152.993515,302.915192 153.268097,278.640808 
	C154.012909,278.884979 154.505539,279.441284 154.998169,279.997559 
	C154.999771,303.304413 155.001358,326.611298 155.006012,350.374023 
	C154.550461,350.868958 154.091843,350.908051 153.290955,350.893433 
z"/>
<path fill="#74ABC6" opacity="1.000000" stroke="none" 
	d="
M271.353729,316.990509 
	C275.227203,288.614655 271.969391,259.833191 272.883087,231.143188 
	C272.936890,229.452957 271.502075,227.715332 270.335144,225.958679 
	C270.995697,224.952286 272.081085,223.986969 273.518127,223.027618 
	C273.911377,251.769424 274.011475,280.505524 273.892181,309.240692 
	C273.881744,311.747009 272.428558,314.247314 271.353729,316.990509 
z"/>
<path fill="#74ABC6" opacity="1.000000" stroke="none" 
	d="
M154.998962,279.529175 
	C154.505539,279.441284 154.012909,278.884979 153.284988,278.173584 
	C153.032913,265.015930 153.016144,252.013336 153.032501,238.553726 
	C156.452332,237.408707 159.839020,236.720703 163.640808,236.072525 
	C161.434280,237.431488 158.812683,238.750610 154.999771,240.669189 
	C154.999771,252.614670 154.999771,265.837738 154.998962,279.529175 
z"/>
<path fill="#74ABC6" opacity="1.000000" stroke="none" 
	d="
M246.643127,236.116730 
	C243.141449,239.768753 232.560181,240.120743 227.036865,236.470551 
	C233.367691,236.096542 239.789307,236.081848 246.643127,236.116730 
z"/>
<path fill="#74ABC6" opacity="1.000000" stroke="none" 
	d="
M266.662415,228.053741 
	C264.233307,229.993881 261.448456,231.956833 258.295654,233.927795 
	C260.720734,231.982742 263.513702,230.029648 266.662415,228.053741 
z"/>
<path fill="#74ABC6" opacity="1.000000" stroke="none" 
	d="
M189.646057,222.023026 
	C188.208710,223.968704 186.428345,225.948135 184.297440,227.940506 
	C185.732269,225.987885 187.517654,224.022324 189.646057,222.023026 
z"/>
<path fill="#74ABC6" opacity="1.000000" stroke="none" 
	d="
M176.638565,232.057404 
	C174.251266,233.348129 171.484726,234.664139 168.322388,235.955841 
	C170.704178,234.648575 173.481750,233.365631 176.638565,232.057404 
z"/>
<path fill="#74ABC6" opacity="1.000000" stroke="none" 
	d="
M254.692413,234.073914 
	C253.511154,234.911957 251.968857,235.718658 250.216705,236.286835 
	C251.448364,235.379730 252.889877,234.711136 254.692413,234.073914 
z"/>
<path fill="#74ABC6" opacity="1.000000" stroke="none" 
	d="
M196.968567,216.639709 
	C195.923538,217.302444 194.827530,217.626160 193.390472,217.989777 
	C193.494492,215.564346 194.312500,213.933411 196.968567,216.639709 
z"/>
<path fill="#74ABC6" opacity="1.000000" stroke="none" 
	d="
M198.933472,218.704605 
	C198.332199,218.558899 197.704788,218.091171 197.048492,217.301910 
	C197.648849,217.447754 198.278076,217.915161 198.933472,218.704605 
z"/>
<path fill="#74ABC6" opacity="1.000000" stroke="none" 
	d="
M182.706345,228.069458 
	C182.542908,228.670303 182.057541,229.288422 181.243622,229.915100 
	C181.404846,229.311356 181.894638,228.699036 182.706345,228.069458 
z"/>
<path fill="#74ABC6" opacity="1.000000" stroke="none" 
	d="
M217.025894,233.601151 
	C216.420135,233.519089 215.745926,233.123611 215.010712,232.413239 
	C215.618973,232.494827 216.288208,232.891281 217.025894,233.601151 
z"/>
<path fill="#74ABC6" opacity="1.000000" stroke="none" 
	d="
M222.989822,235.637817 
	C222.387070,235.553329 221.724838,235.151016 220.998032,234.440903 
	C221.599091,234.528732 222.264709,234.924362 222.989822,235.637817 
z"/>
</svg>