<svg version="1.1" id="Layer_1" xmlns="http://www.w3.org/2000/svg" xmlns:xlink="http://www.w3.org/1999/xlink" x="0px" y="0px"
	 width="100%" viewBox="0 0 323 220" enable-background="new 0 0 323 220" xml:space="preserve">
<path fill="#FEFEFE" opacity="1.000000" stroke="none" 
	d="
M324.000000,4.000000 
	C324.000000,76.291512 324.000000,148.583023 324.000000,220.937256 
	C216.437439,220.937256 108.874847,220.937256 1.000000,220.937256 
	C1.000000,148.979401 1.000000,76.958359 1.467854,4.468363 
	C109.290474,3.999608 216.645233,3.999804 324.000000,4.000000 
M62.089596,98.849983 
	C62.089596,98.849983 62.103199,98.703979 61.869217,98.296555 
	C61.632915,98.049202 61.345676,97.951431 60.100250,98.061050 
	C57.069466,98.046425 54.038681,98.031807 50.401306,97.898445 
	C49.648689,97.593071 48.896072,97.287704 47.891724,96.310051 
	C46.341789,90.915512 42.917847,86.765938 37.464325,86.019363 
	C29.389599,84.913956 21.159216,84.945549 12.946164,84.490364 
	C12.946164,104.171463 12.946164,122.682358 12.946164,141.087524 
	C16.790588,141.087524 20.177496,141.087524 24.071960,141.087524 
	C24.071960,134.403351 24.071960,128.159515 24.071960,121.627182 
	C34.523376,121.484467 44.141232,120.460136 48.437584,108.752853 
	C48.396904,108.165398 48.356224,107.577950 48.283607,106.151772 
	C48.424843,104.491440 48.566074,102.831100 49.197063,101.200150 
	C49.799339,101.465370 50.401619,101.730591 51.000000,102.000000 
	C51.000000,102.000000 51.004631,101.997757 50.959206,102.583221 
	C51.254719,103.059891 51.550232,103.536560 52.128441,104.706757 
	C56.211018,115.795586 60.221680,126.911697 64.411537,137.959839 
	C66.089973,142.385666 64.735252,146.174545 61.468117,148.675110 
	C59.234966,150.384308 55.789757,150.509872 52.683487,151.401703 
	C52.683487,153.768066 52.683487,156.639801 52.683487,159.436447 
	C66.163788,161.454514 71.129807,156.977753 75.130043,145.428741 
	C77.308914,139.138138 79.489594,132.848160 81.650475,126.551384 
	C84.824860,117.301277 87.982239,108.045334 91.392639,98.073235 
	C88.914879,98.073235 87.102615,98.321426 85.384308,98.024994 
	C80.886253,97.249008 78.934288,99.144722 77.823639,103.478386 
	C75.845955,111.195099 73.235176,118.749550 70.650986,127.145775 
	C67.835968,117.555397 65.307411,108.940956 62.841854,99.782295 
	C62.632851,99.496941 62.423851,99.211594 62.089596,98.849983 
M212.923248,100.873512 
	C211.281982,100.293144 209.640701,99.712784 207.324173,98.907425 
	C203.737610,99.261398 200.147797,99.585503 196.565079,99.974831 
	C184.866272,101.246117 175.421280,113.706207 177.352280,125.293388 
	C178.964020,134.964859 185.212112,139.440475 197.033249,140.077057 
	C206.712936,140.598328 208.259750,139.966705 207.520523,128.427444 
	C205.149338,129.370895 202.780090,130.575150 200.269363,131.262985 
	C193.051178,133.240433 186.032898,126.913925 187.093857,119.536285 
	C187.988281,113.316559 193.627304,108.194847 200.117157,107.707687 
	C206.684982,107.214676 209.729416,109.566719 212.032928,117.877579 
	C211.318619,125.142159 210.604309,132.406738 209.868027,139.894897 
	C212.312973,139.894897 214.281540,139.806992 216.239304,139.915054 
	C219.345062,140.086487 219.916153,138.603867 219.026489,135.222473 
	C219.092865,134.181366 219.159241,133.140259 219.915543,131.823624 
	C220.571823,127.215637 221.228119,122.607643 222.045242,117.257393 
	C221.983612,116.505203 221.921967,115.753006 221.956451,114.236572 
	C220.943756,108.866081 218.611710,104.352272 213.552536,101.405678 
	C213.552536,101.405678 213.406784,101.297928 212.923248,100.873512 
M286.714661,139.911362 
	C290.133392,137.933823 286.537445,137.262772 285.760681,135.380997 
	C280.328857,128.071564 274.897003,120.762138 269.479767,113.472336 
	C273.605743,106.532562 285.419647,103.263359 278.987213,91.525780 
	C273.801819,96.946381 268.620361,102.362839 263.438904,107.779289 
	C263.069244,107.418152 262.699585,107.057014 262.329926,106.695877 
	C263.286377,99.833046 264.242859,92.970222 265.250488,85.740196 
	C257.287048,88.811653 251.838135,92.846062 252.283554,101.723907 
	C252.422913,104.501450 251.650070,107.327164 251.272278,110.127792 
	C249.952148,119.914482 248.622192,129.699844 247.272949,139.655426 
	C251.215897,139.655426 254.482956,139.655426 257.842377,139.655426 
	C258.844940,132.613205 259.816742,125.787254 260.944916,117.862816 
	C264.904297,123.522202 268.789856,127.941292 271.354980,133.026443 
	C274.646637,139.551758 279.499512,140.991974 286.714661,139.911362 
M283.605347,97.791687 
	C284.158051,98.743416 284.520294,100.307785 285.294098,100.548355 
	C290.689758,102.225906 296.091583,104.177361 301.644745,104.978645 
	C308.261810,105.933456 311.815094,100.301270 308.789642,94.225945 
	C306.564545,89.757774 304.162384,85.358864 301.537933,81.115349 
	C299.871490,78.420807 299.951782,76.550354 302.243530,74.189781 
	C306.765320,69.532196 311.178864,64.721901 315.133606,59.586929 
	C316.539673,57.761234 317.745758,53.775410 316.796448,52.617325 
	C315.412048,50.928448 311.859528,49.989483 309.476898,50.350697 
	C303.743134,51.219955 298.073212,52.782356 292.529572,54.543579 
	C288.438599,55.843277 285.750183,55.475727 283.829071,51.172791 
	C282.417847,48.011932 280.165802,45.229130 278.315826,42.260803 
	C276.315948,39.051971 273.825623,35.263218 269.828522,37.051071 
	C267.001709,38.315464 264.492767,41.833893 263.332764,44.908550 
	C261.714813,49.196907 261.337952,53.989948 260.715302,58.605503 
	C260.239380,62.133255 258.665192,64.047050 255.068298,64.939499 
	C249.260666,66.380470 243.433029,67.997673 237.936142,70.307442 
	C235.744873,71.228195 233.175659,74.106041 233.030701,76.245544 
	C232.882507,78.432785 235.090668,81.262009 237.013367,82.970757 
	C238.913162,84.659134 241.727219,85.341125 244.172485,86.389267 
	C252.247772,89.850685 255.871887,88.993530 262.061218,82.133446 
	C257.667175,80.365425 253.317841,78.615395 248.968521,76.865372 
	C253.908691,74.236496 258.712280,72.439690 263.664948,71.279175 
	C267.012695,70.494736 268.277924,68.680580 268.752014,65.544975 
	C269.474640,60.765762 270.470551,56.027874 271.580048,50.031242 
	C274.839203,55.178368 277.454651,59.024502 279.756805,63.049816 
	C281.168610,65.518372 282.728577,66.057724 285.456604,65.254539 
	C290.417419,63.793957 295.503082,62.757397 300.536652,61.543888 
	C298.098175,65.970497 295.419769,69.616158 292.121613,72.569717 
	C288.542084,75.775291 288.461517,78.599258 291.067352,82.390587 
	C293.286713,85.619629 294.898224,89.266479 297.277313,93.646652 
	C291.869019,92.383415 287.437256,91.348274 282.461975,90.186180 
	C282.830566,92.854965 283.118408,94.938828 283.605347,97.791687 
M129.145676,117.799721 
	C127.580795,129.228622 126.015915,140.657532 124.421577,152.301559 
	C127.989624,152.301559 130.775787,152.301559 133.858063,152.301559 
	C134.610153,147.393036 135.343994,142.603500 136.096649,137.691208 
	C144.664124,141.291367 148.395065,141.807831 154.944916,139.908600 
	C165.433807,136.867203 175.812057,127.245941 172.970108,112.363052 
	C170.583740,99.866074 156.531342,95.003036 143.150864,100.863365 
	C136.094421,103.953903 131.568024,109.597069 129.145676,117.799721 
M96.898216,140.004501 
	C100.345169,140.338760 103.868301,141.294495 107.223846,140.883148 
	C115.203102,139.904999 121.151939,135.698166 124.177773,127.992821 
	C127.041275,120.700806 124.062027,115.116173 118.860359,110.165001 
	C116.208565,107.640900 113.665558,104.997192 111.161530,102.324959 
	C109.344810,100.386185 107.044823,98.291214 109.776657,95.550362 
	C112.388008,92.930397 115.479408,92.990707 118.352699,95.171280 
	C119.719879,96.208847 120.748825,97.692108 122.023575,99.073830 
	C125.203568,96.785103 128.130249,94.678680 131.118225,92.528152 
	C127.834579,86.973000 123.442505,83.849770 117.247948,83.577446 
	C109.776627,83.249008 102.007240,87.882217 98.925179,94.401855 
	C95.546021,101.549942 98.880363,106.905403 103.567406,111.869537 
	C106.194336,114.651764 108.992149,117.272591 111.621017,120.053070 
	C114.154205,122.732346 115.409218,125.654976 112.349258,128.806503 
	C109.370888,131.874008 104.490723,132.114090 101.598442,129.212234 
	C100.235680,127.844955 99.263748,126.088127 97.923958,124.245445 
	C94.731377,125.901123 91.529861,127.561417 88.146957,129.315796 
	C89.440353,134.059448 91.834740,137.613907 96.898216,140.004501 
M232.143585,139.046158 
	C232.776886,137.939346 233.795471,136.893005 233.980240,135.715790 
	C235.086227,128.669403 236.227753,121.614288 236.895782,114.518639 
	C237.316086,110.054413 239.276474,108.252518 243.627136,108.764290 
	C244.587326,108.877235 245.572128,108.780830 246.839584,108.780830 
	C247.271118,105.483971 247.661072,102.504845 248.098740,99.161118 
	C245.469620,99.161118 243.483353,99.003784 241.529877,99.190277 
	C235.384369,99.776955 229.607910,101.975876 228.224182,108.413773 
	C226.087204,118.356361 225.125839,128.551620 223.607544,139.042679 
	C226.626251,139.042679 228.927338,139.042679 232.143585,139.046158 
z"/>
<path fill="#FFFFFF" opacity="1.000000" stroke="none" 
	d="
M1.000000,3.000000 
	C1.333333,2.333333 1.548027,1.216341 2.023962,1.090954 
	C3.114909,0.803541 4.333333,1.000000 5.500000,1.000000 
	C110.166664,1.000000 214.833328,0.995827 319.499969,1.041530 
	C321.000122,1.042185 322.500000,1.666671 323.532166,2.500002 
	C215.709534,3.000000 108.354767,3.000000 1.000000,3.000000 
z"/>
<path fill="#F1F3F4" opacity="1.000000" stroke="none" 
	d="
M1.000000,3.250000 
	C108.354767,3.000000 215.709534,3.000000 323.532166,3.000000 
	C324.000000,3.000000 324.000000,3.500000 324.000000,3.750000 
	C216.645233,3.999804 109.290474,3.999608 1.467854,3.999706 
	C1.000000,4.000000 1.000000,3.500000 1.000000,3.250000 
z"/>
<path fill="#E2752F" opacity="1.000000" stroke="none" 
	d="
M283.505798,97.407181 
	C283.118408,94.938828 282.830566,92.854965 282.461975,90.186180 
	C287.437256,91.348274 291.869019,92.383415 297.277313,93.646652 
	C294.898224,89.266479 293.286713,85.619629 291.067352,82.390587 
	C288.461517,78.599258 288.542084,75.775291 292.121613,72.569717 
	C295.419769,69.616158 298.098175,65.970497 300.536652,61.543888 
	C295.503082,62.757397 290.417419,63.793957 285.456604,65.254539 
	C282.728577,66.057724 281.168610,65.518372 279.756805,63.049816 
	C277.454651,59.024502 274.839203,55.178368 271.580048,50.031242 
	C270.470551,56.027874 269.474640,60.765762 268.752014,65.544975 
	C268.277924,68.680580 267.012695,70.494736 263.664948,71.279175 
	C258.712280,72.439690 253.908691,74.236496 248.968521,76.865372 
	C253.317841,78.615395 257.667175,80.365425 262.061218,82.133446 
	C255.871887,88.993530 252.247772,89.850685 244.172485,86.389267 
	C241.727219,85.341125 238.913162,84.659134 237.013367,82.970757 
	C235.090668,81.262009 232.882507,78.432785 233.030701,76.245544 
	C233.175659,74.106041 235.744873,71.228195 237.936142,70.307442 
	C243.433029,67.997673 249.260666,66.380470 255.068298,64.939499 
	C258.665192,64.047050 260.239380,62.133255 260.715302,58.605503 
	C261.337952,53.989948 261.714813,49.196907 263.332764,44.908550 
	C264.492767,41.833893 267.001709,38.315464 269.828522,37.051071 
	C273.825623,35.263218 276.315948,39.051971 278.315826,42.260803 
	C280.165802,45.229130 282.417847,48.011932 283.829071,51.172791 
	C285.750183,55.475727 288.438599,55.843277 292.529572,54.543579 
	C298.073212,52.782356 303.743134,51.219955 309.476898,50.350697 
	C311.859528,49.989483 315.412048,50.928448 316.796448,52.617325 
	C317.745758,53.775410 316.539673,57.761234 315.133606,59.586929 
	C311.178864,64.721901 306.765320,69.532196 302.243530,74.189781 
	C299.951782,76.550354 299.871490,78.420807 301.537933,81.115349 
	C304.162384,85.358864 306.564545,89.757774 308.789642,94.225945 
	C311.815094,100.301270 308.261810,105.933456 301.644745,104.978645 
	C296.091583,104.177361 290.689758,102.225906 285.294098,100.548355 
	C284.520294,100.307785 284.158051,98.743416 283.505798,97.407181 
z"/>
<path fill="#E3742D" opacity="1.000000" stroke="none" 
	d="
M48.707310,101.170769 
	C48.566074,102.831100 48.424843,104.491440 48.154793,106.886673 
	C48.012196,108.080467 47.998405,108.539368 47.984619,108.998260 
	C44.141232,120.460136 34.523376,121.484467 24.071960,121.627182 
	C24.071960,128.159515 24.071960,134.403351 24.071960,141.087524 
	C20.177496,141.087524 16.790588,141.087524 12.946164,141.087524 
	C12.946164,122.682358 12.946164,104.171463 12.946164,84.490364 
	C21.159216,84.945549 29.389599,84.913956 37.464325,86.019363 
	C42.917847,86.765938 46.341789,90.915512 47.964161,97.072540 
	C48.260170,98.946938 48.483738,100.058853 48.707310,101.170769 
M35.768040,108.033966 
	C35.808323,104.577530 37.007977,100.533447 35.622360,97.799744 
	C33.439453,93.493042 28.550753,94.775436 24.205193,95.084457 
	C24.205193,100.511467 24.205193,105.701569 24.205193,112.400810 
	C28.392618,110.977898 31.809950,109.816666 35.768040,108.033966 
z"/>
<path fill="#231E1C" opacity="1.000000" stroke="none" 
	d="
M129.243774,117.406898 
	C131.568024,109.597069 136.094421,103.953903 143.150864,100.863365 
	C156.531342,95.003036 170.583740,99.866074 172.970108,112.363052 
	C175.812057,127.245941 165.433807,136.867203 154.944916,139.908600 
	C148.395065,141.807831 144.664124,141.291367 136.096649,137.691208 
	C135.343994,142.603500 134.610153,147.393036 133.858063,152.301559 
	C130.775787,152.301559 127.989624,152.301559 124.421577,152.301559 
	C126.015915,140.657532 127.580795,129.228622 129.243774,117.406898 
M163.465729,115.313332 
	C160.430588,108.556740 155.386520,106.147789 148.598557,108.213036 
	C142.262207,110.140892 137.886169,116.517647 138.715790,122.614227 
	C139.320526,127.058174 145.074829,132.572647 149.100037,132.565659 
	C156.744003,132.552399 163.860123,124.484764 163.465729,115.313332 
z"/>
<path fill="#E37630" opacity="1.000000" stroke="none" 
	d="
M51.007896,98.017181 
	C54.038681,98.031807 57.069466,98.046425 60.694756,98.207634 
	C61.519211,98.567047 61.790524,98.683632 62.103199,98.703979 
	C62.103199,98.703979 62.089596,98.849983 62.138054,99.156204 
	C62.383965,99.750450 62.581413,100.038483 62.778858,100.326515 
	C65.307411,108.940956 67.835968,117.555397 70.650986,127.145775 
	C73.235176,118.749550 75.845955,111.195099 77.823639,103.478386 
	C78.934288,99.144722 80.886253,97.249008 85.384308,98.024994 
	C87.102615,98.321426 88.914879,98.073235 91.392639,98.073235 
	C87.982239,108.045334 84.824860,117.301277 81.650475,126.551384 
	C79.489594,132.848160 77.308914,139.138138 75.130043,145.428741 
	C71.129807,156.977753 66.163788,161.454514 52.683487,159.436447 
	C52.683487,156.639801 52.683487,153.768066 52.683487,151.401703 
	C55.789757,150.509872 59.234966,150.384308 61.468117,148.675110 
	C64.735252,146.174545 66.089973,142.385666 64.411537,137.959839 
	C60.221680,126.911697 56.211018,115.795586 52.018715,104.069763 
	C51.607536,102.954437 51.306084,102.476097 51.004631,101.997757 
	C51.004631,101.997757 51.000000,102.000000 51.008503,101.595108 
	C51.013969,100.132545 51.010933,99.074860 51.007896,98.017181 
z"/>
<path fill="#221D1B" opacity="1.000000" stroke="none" 
	d="
M96.527283,139.863007 
	C91.834740,137.613907 89.440353,134.059448 88.146957,129.315796 
	C91.529861,127.561417 94.731377,125.901123 97.923958,124.245445 
	C99.263748,126.088127 100.235680,127.844955 101.598442,129.212234 
	C104.490723,132.114090 109.370888,131.874008 112.349258,128.806503 
	C115.409218,125.654976 114.154205,122.732346 111.621017,120.053070 
	C108.992149,117.272591 106.194336,114.651764 103.567406,111.869537 
	C98.880363,106.905403 95.546021,101.549942 98.925179,94.401855 
	C102.007240,87.882217 109.776627,83.249008 117.247948,83.577446 
	C123.442505,83.849770 127.834579,86.973000 131.118225,92.528152 
	C128.130249,94.678680 125.203568,96.785103 122.023575,99.073830 
	C120.748825,97.692108 119.719879,96.208847 118.352699,95.171280 
	C115.479408,92.990707 112.388008,92.930397 109.776657,95.550362 
	C107.044823,98.291214 109.344810,100.386185 111.161530,102.324959 
	C113.665558,104.997192 116.208565,107.640900 118.860359,110.165001 
	C124.062027,115.116173 127.041275,120.700806 124.177773,127.992821 
	C121.151939,135.698166 115.203102,139.904999 107.223846,140.883148 
	C103.868301,141.294495 100.345169,140.338760 96.527283,139.863007 
z"/>
<path fill="#221E1B" opacity="1.000000" stroke="none" 
	d="
M285.974365,139.705429 
	C279.499512,140.991974 274.646637,139.551758 271.354980,133.026443 
	C268.789856,127.941292 264.904297,123.522202 260.944916,117.862816 
	C259.816742,125.787254 258.844940,132.613205 257.842377,139.655426 
	C254.482956,139.655426 251.215897,139.655426 247.272949,139.655426 
	C248.622192,129.699844 249.952148,119.914482 251.272278,110.127792 
	C251.650070,107.327164 252.422913,104.501450 252.283554,101.723907 
	C251.838135,92.846062 257.287048,88.811653 265.250488,85.740196 
	C264.242859,92.970222 263.286377,99.833046 262.329926,106.695877 
	C262.699585,107.057014 263.069244,107.418152 263.438904,107.779289 
	C268.620361,102.362839 273.801819,96.946381 278.987213,91.525780 
	C285.419647,103.263359 273.605743,106.532562 269.479767,113.472336 
	C274.897003,120.762138 280.328857,128.071564 285.877014,136.070892 
	C285.987000,137.742340 285.980682,138.723892 285.974365,139.705429 
z"/>
<path fill="#221D1B" opacity="1.000000" stroke="none" 
	d="
M219.225616,132.099152 
	C219.159241,133.140259 219.092865,134.181366 218.714035,135.832062 
	C215.605576,139.026169 213.209167,139.140259 212.904419,134.776093 
	C212.651123,131.148529 213.543411,127.453674 213.493744,123.794533 
	C213.462906,121.523743 212.621445,119.263962 212.143845,116.999237 
	C209.729416,109.566719 206.684982,107.214676 200.117157,107.707687 
	C193.627304,108.194847 187.988281,113.316559 187.093857,119.536285 
	C186.032898,126.913925 193.051178,133.240433 200.269363,131.262985 
	C202.780090,130.575150 205.149338,129.370895 207.520523,128.427444 
	C208.259750,139.966705 206.712936,140.598328 197.033249,140.077057 
	C185.212112,139.440475 178.964020,134.964859 177.352280,125.293388 
	C175.421280,113.706207 184.866272,101.246117 196.565079,99.974831 
	C200.147797,99.585503 203.737610,99.261398 207.735565,99.371582 
	C209.900223,100.323143 211.653503,100.810539 213.406784,101.297928 
	C213.406784,101.297928 213.552536,101.405678 213.457825,101.816238 
	C216.195526,106.484810 219.027924,110.742813 221.860321,115.000816 
	C221.921967,115.753006 221.983612,116.505203 221.597321,117.716858 
	C219.867126,122.131332 218.505936,126.064697 217.407410,130.070099 
	C217.277283,130.544525 218.584625,131.413208 219.225616,132.099152 
z"/>
<path fill="#25201E" opacity="1.000000" stroke="none" 
	d="
M231.686005,139.044418 
	C228.927338,139.042679 226.626251,139.042679 223.607544,139.042679 
	C225.125839,128.551620 226.087204,118.356361 228.224182,108.413773 
	C229.607910,101.975876 235.384369,99.776955 241.529877,99.190277 
	C243.483353,99.003784 245.469620,99.161118 248.098740,99.161118 
	C247.661072,102.504845 247.271118,105.483971 246.839584,108.780830 
	C245.572128,108.780830 244.587326,108.877235 243.627136,108.764290 
	C239.276474,108.252518 237.316086,110.054413 236.895782,114.518639 
	C236.227753,121.614288 235.086227,128.669403 233.980240,135.715790 
	C233.795471,136.893005 232.776886,137.939346 231.686005,139.044418 
z"/>
<path fill="#231F1C" opacity="1.000000" stroke="none" 
	d="
M212.088379,117.438408 
	C212.621445,119.263962 213.462906,121.523743 213.493744,123.794533 
	C213.543411,127.453674 212.651123,131.148529 212.904419,134.776093 
	C213.209167,139.140259 215.605576,139.026169 218.694733,136.223206 
	C219.916153,138.603867 219.345062,140.086487 216.239304,139.915054 
	C214.281540,139.806992 212.312973,139.894897 209.868027,139.894897 
	C210.604309,132.406738 211.318619,125.142159 212.088379,117.438408 
z"/>
<path fill="#231F1C" opacity="1.000000" stroke="none" 
	d="
M221.908386,114.618698 
	C219.027924,110.742813 216.195526,106.484810 213.529877,101.871231 
	C218.611710,104.352272 220.943756,108.866081 221.908386,114.618698 
z"/>
<path fill="#231F1C" opacity="1.000000" stroke="none" 
	d="
M219.570587,131.961395 
	C218.584625,131.413208 217.277283,130.544525 217.407410,130.070099 
	C218.505936,126.064697 219.867126,122.131332 221.516907,118.087997 
	C221.228119,122.607643 220.571823,127.215637 219.570587,131.961395 
z"/>
<path fill="#FAE1CC" opacity="1.000000" stroke="none" 
	d="
M50.704601,97.957809 
	C51.010933,99.074860 51.013969,100.132545 51.010452,101.593018 
	C50.401619,101.730591 49.799339,101.465370 48.952187,101.185455 
	C48.483738,100.058853 48.260170,98.946938 48.090027,97.408676 
	C48.896072,97.287704 49.648689,97.593071 50.704601,97.957809 
z"/>
<path fill="#231F1C" opacity="1.000000" stroke="none" 
	d="
M213.165009,101.085724 
	C211.653503,100.810539 209.900223,100.323143 208.073181,99.484085 
	C209.640701,99.712784 211.281982,100.293144 213.165009,101.085724 
z"/>
<path fill="#322E2D" opacity="1.000000" stroke="none" 
	d="
M286.344513,139.808395 
	C285.980682,138.723892 285.987000,137.742340 285.991943,136.392303 
	C286.537445,137.262772 290.133392,137.933823 286.344513,139.808395 
z"/>
<path fill="#FAE1CC" opacity="1.000000" stroke="none" 
	d="
M50.981918,102.290489 
	C51.306084,102.476097 51.607536,102.954437 51.877365,103.723007 
	C51.550232,103.536560 51.254719,103.059891 50.981918,102.290489 
z"/>
<path fill="#FAE1CC" opacity="1.000000" stroke="none" 
	d="
M48.211102,108.875557 
	C47.998405,108.539368 48.012196,108.080467 48.170761,107.306030 
	C48.356224,107.577950 48.396904,108.165398 48.211102,108.875557 
z"/>
<path fill="#FAE1CC" opacity="1.000000" stroke="none" 
	d="
M61.986206,98.500267 
	C61.790524,98.683632 61.519211,98.567047 61.148380,98.178726 
	C61.345676,97.951431 61.632915,98.049202 61.986206,98.500267 
z"/>
<path fill="#FAE1CC" opacity="1.000000" stroke="none" 
	d="
M62.810356,100.054405 
	C62.581413,100.038483 62.383965,99.750450 62.200684,99.194328 
	C62.423851,99.211594 62.632851,99.496941 62.810356,100.054405 
z"/>
<path fill="#FEFAF6" opacity="1.000000" stroke="none" 
	d="
M35.497658,108.344704 
	C31.809950,109.816666 28.392618,110.977898 24.205193,112.400810 
	C24.205193,105.701569 24.205193,100.511467 24.205193,95.084457 
	C28.550753,94.775436 33.439453,93.493042 35.622360,97.799744 
	C37.007977,100.533447 35.808323,104.577530 35.497658,108.344704 
z"/>
<path fill="#F9F9F9" opacity="1.000000" stroke="none" 
	d="
M163.555664,115.694244 
	C163.860123,124.484764 156.744003,132.552399 149.100037,132.565659 
	C145.074829,132.572647 139.320526,127.058174 138.715790,122.614227 
	C137.886169,116.517647 142.262207,110.140892 148.598557,108.213036 
	C155.386520,106.147789 160.430588,108.556740 163.555664,115.694244 
z"/>
</svg>