<?xml version="1.0" encoding="utf-8"?>
<!-- Generator: Adobe Illustrator 26.0.3, SVG Export Plug-In . SVG Version: 6.00 Build 0)  -->
<svg version="1.0" id="katman_1" xmlns="http://www.w3.org/2000/svg" xmlns:xlink="http://www.w3.org/1999/xlink" x="0px" y="0px"
	 viewBox="0 0 600 450" style="enable-background:new 0 0 600 450;" xml:space="preserve">
<style type="text/css">
	.st0{fill:#010202;}
</style>
<symbol  id="icon-refrigerated" viewBox="-18 -19.3 35.9 38.7">
	<path class="st0" d="M17.6,4.4l-7.6,1L2.1,0L10-5.5l7.6,0.8l0.2-2.5L13-7.6l3.6-2.5l-1.4-2l-3.5,2.5l1-4.7l-2.3-0.6L8.7-7.6
		L1.2-2.3v-8.5l5-5.9l-1.9-1.5l-3.1,3.7v-4.8h-2.4v4.5l-3.2-3.5l-1.8,1.7l5,5.4v9l-7.5-5.1l-1.9-7.3L-13-14l1.2,4.5l-3.5-2.4l-1.4,2
		l3.6,2.4L-18-6.8l0.4,2.4l7.4-1l8,5.4l-7.9,5.6l-7.4-0.7l-0.3,2.4l4.6,0.4l-3.4,2.4l1.4,2l3.5-2.4l-1.1,4.8l2.4,0.5l1.6-7.4
		l7.6-5.3v9.3l-5,5.9l1.8,1.6l3.2-3.7v4h2.4v-3.8L4.4,19l1.7-1.6L1.3,12V2.4l7.4,5.1l2,7.1L13,14l-1.2-4.4l3.6,2.4l1.4-2L13,7.5
		L18,6.8L17.6,4.4z"/>
</symbol>
<use xlink:href="#icon-refrigerated"  width="35.9" height="38.7" x="-18" y="-19.3" transform="matrix(7.9709 0 0 7.9709 300 225)" style="overflow:visible;"/>
</svg>
